<?xml version="1.0" encoding="utf-8"?>
<!-- Generator: Adobe Illustrator 16.0.0, SVG Export Plug-In . SVG Version: 6.00 Build 0)  -->
<!DOCTYPE svg PUBLIC "-//W3C//DTD SVG 1.1//EN" "http://www.w3.org/Graphics/SVG/1.1/DTD/svg11.dtd">
<svg version="1.1" id="Ebene_1" xmlns="http://www.w3.org/2000/svg" xmlns:xlink="http://www.w3.org/1999/xlink" x="0px" y="0px"
	 width="277.8px" height="246.61px" viewBox="0 0 277.8 246.61" enable-background="new 0 0 277.8 246.61" xml:space="preserve">
			<path fill="none" stroke="#FFFFFF" stroke-width="8" stroke-miterlimit="10" d="M196.017,7.008c5.35,0,11.916,3.786,14.593,8.419
				l57.658,99.806c2.677,4.632,2.678,12.213,0.006,16.848l-57.604,99.835c-2.672,4.635-9.234,8.427-14.585,8.428l-115.263,0.035
				c-5.349,0.002-11.915-3.787-14.591-8.419L8.569,132.158c-2.677-4.633-2.678-12.213-0.005-16.848l57.601-99.837
				c2.673-4.633,9.236-8.426,14.585-8.427L196.017,7.008z"/>
  <polyline fill="none" stroke="#FFFFFF" stroke-width="8" stroke-miterlimit="10" points="74.129,236.017 73.839,90.335
    47.545,90.867 107.185,30.986 166.826,90.387 138.38,90.684 136.837,155.944 109.352,157.196 167.317,215.405 227.434,155.046
    202.574,155.573 202.684,9.904 "/>
</svg>
