<svg version="1.1" x="0px" y="0px" viewBox="0 0 52 65">
    <path d="M39.9183998,21H12.0815001C11.4853001,21,11,20.5146008,11,19.9188995V15c0-1.1026001,0.8969002-2,2-2h26    c1.1030006,0,2,0.8973999,2,2v4.9188995C41,20.5146008,40.5145988,21,39.9183998,21z M13,19h26v-4H13V19z"/>
    <path d="M26,50c-3.8598995,0-7-3.1405983-7-7V29.3799l-7.7475996-8.7159004l1.4951-1.3281002L21,28.6201V43    c0,2.7568016,2.2430992,5,5,5c2.7567997,0,5-2.2431984,5-5V28.6201l8.2523994-9.2842007l1.4951019,1.3281002L33,29.3799V43    C33,46.8594017,29.8598003,50,26,50z"/>
    <rect x="25" y="34" width="2" height="6"/>
    <rect x="13" y="9" width="2" height="2"/>
    <rect x="17" y="9" width="2" height="2"/>
    <rect x="21" y="9" width="2" height="2"/>
    <rect x="25" y="9" width="2" height="2"/>
    <rect x="29" y="9" width="2" height="2"/>
    <rect x="33" y="9" width="2" height="2"/>
    <rect x="37" y="9" width="2" height="2"/>
    <rect x="13" y="2" width="2" height="4"/>
    <rect x="17" y="2" width="2" height="4"/>
    <rect x="21" y="2" width="2" height="4"/>
    <rect x="25" y="2" width="2" height="4"/>
    <rect x="29" y="2" width="2" height="4"/>
    <rect x="33" y="2" width="2" height="4"/>
    <rect x="37" y="2" width="2" height="4"/>
    <rect x="10" y="8" width="32" height="2"/>
</svg>
