<?xml version="1.0" encoding="utf-8"?>
<!DOCTYPE svg PUBLIC "-//W3C//DTD SVG 1.1//EN" "http://www.w3.org/Graphics/SVG/1.1/DTD/svg11.dtd">
<svg version="1.1" id="Ebene_1" xmlns="http://www.w3.org/2000/svg" xmlns:xlink="http://www.w3.org/1999/xlink" x="0px" y="0px"
	 width="725.67px" height="76.54px" viewBox="0 0 725.67 76.54" xml:space="preserve">
	<path fill="#033c6a" d="M374.271,3.745c-6.376-3.676-16.359-3.672-22.729,0.008l0.002,0.002L246.536,64.339c-3.331,1.922-9.4,1.921-12.729-0.003
		l-4.587,7.937l4.584-7.944L128.738,3.71c-6.376-3.676-16.358-3.673-22.729,0.008L0.984,64.398l5.003,8.658l105.025-60.68
		c3.33-1.924,9.398-1.925,12.729-0.004l105.063,60.616l-0.002,0.005c3.188,1.842,7.279,2.763,11.372,2.763
		c4.086,0,8.173-0.919,11.358-2.755l105.064-60.617v0c3.339-1.896,9.361-1.889,12.676,0.023l105.064,60.616l4.998-8.662
		L374.271,3.745z"/>
	<path fill="#033c6a" d="M619.83,3.745c-6.377-3.676-16.36-3.672-22.729,0.008l0.001,0.002L492.096,64.339c-3.332,1.922-9.401,1.921-12.729-0.003
		l-5.004,8.658c3.188,1.842,7.279,2.763,11.372,2.763c4.086,0,8.173-0.919,11.358-2.755l105.064-60.617v0
		c3.339-1.896,9.361-1.889,12.676,0.023l105.064,60.616l4.998-8.662L619.83,3.745z"/>
</svg>
